:FULLY-SPECIFIED
:FORCE-ALL-JOINTS-BE-3DOF
:DEGREES
816
root -4.44283 14.7364 -40.2347 415.301 -77.0164 313.863
lfemur -72.1496 12.5164 -22.6473
ltibia 74.9 0 0
lfoot -8.29911 5.91872 0
ltoes -15.8163 0 0
rfemur -30.5742 -2.04586 24.9645
rtibia 71.7458 0 0
rfoot -32.5136 -27.7152 0
rtoes -27.0501 0 0
lowerback 18.0746 1.17832 3.46749
upperback 0.787481 2.40748 2.49326
thorax -9.25875 1.01999 0.146192
lowerneck -1.62859 13.205 4.39612
upperneck -2.40999 17.5599 -10.1155
head 0.881659 8.7605 -3.55932
lclavicle -3.34431e-14 3.63547e-15 0
lhumerus 102.591 -32.0796 22.4706
lradius 87.3446 0 0
lwrist 25.7039 0 0
lhand -8.04628 23.8009 0
lfingers 7.12502 0 0
lthumb 17.867 53.053 0
rclavicle -3.34431e-14 3.63547e-15 0
rhumerus 18.9061 26.4593 -63.1692
rradius 57.7576 0 0
rwrist -16.5824 0 0
rhand -16.4574 -45.275 0
rfingers 7.12502 0 0
rthumb 9.78093 -75.3019 0
817
root -4.27594 14.7463 -40.2837 409.386 -76.1317 319.858
lfemur -72.2514 14.2148 -23.5236
ltibia 78.0238 0 0
lfoot -8.53262 6.64097 0
ltoes -16.0803 0 0
rfemur -31.1755 -3.68063 24.693
rtibia 71.758 0 0
rfoot -32.7771 -27.6021 0
rtoes -25.8186 0 0
lowerback 18.0993 1.09429 3.40843
upperback 0.724318 2.29515 2.52327
thorax -9.35074 0.968349 0.236004
lowerneck -1.74067 13.1448 4.34227
upperneck -2.28167 17.4836 -10.1241
head 0.940206 8.71939 -3.54674
lclavicle -3.21969e-14 3.2843e-15 0
lhumerus 103.615 -32.2004 21.8603
lradius 89.9976 0 0
lwrist 23.6769 0 0
lhand -8.50655 23.607 0
lfingers 7.12502 0 0
lthumb 17.4231 52.8783 0
rclavicle -3.21969e-14 3.2843e-15 0
rhumerus 20.5715 28.9586 -61.7463
rradius 59.279 0 0
rwrist -15.3779 0 0
rhand -15.9425 -44.4764 0
rfingers 7.12502 0 0
rthumb 10.2729 -74.4198 0
818
root -4.10905 14.7562 -40.3327 402.68 -75.146 326.636
lfemur -72.1166 15.9595 -24.1792
ltibia 81.0056 0 0
lfoot -8.6368 7.48399 0
ltoes -16.2092 0 0
rfemur -31.8812 -5.43639 24.427
rtibia 71.7739 0 0
rfoot -33.0125 -27.5188 0
rtoes -24.537 0 0
lowerback 18.1352 1.01704 3.35411
upperback 0.653712 2.19311 2.54372
thorax -9.45628 0.921005 0.309543
lowerneck -1.86914 13.0837 4.30156
upperneck -2.11352 17.4075 -10.1396
head 1.01548 8.6773 -3.53646
lclavicle -3.06312e-14 2.82853e-15 0
lhumerus 104.463 -32.6018 20.9504
lradius 93.2937 0 0
lwrist 21.7853 0 0
lhand -8.9264 23.4359 0
lfingers 7.12502 0 0
lthumb 17.0182 52.7265 0
rclavicle -3.06312e-14 2.82853e-15 0
rhumerus 22.7913 31.8603 -59.8792
rradius 60.9617 0 0
rwrist -13.7754 0 0
rhand -15.3038 -43.4854 0
rfingers 7.12502 0 0
rthumb 10.8836 -73.3311 0
819
root -3.94216 14.7661 -40.3817 395.072 -74.0583 334.308
lfemur -71.7221 17.7463 -24.5945
ltibia 83.8181 0 0
lfoot -8.59902 8.46123 0
ltoes -16.1875 0 0
rfemur -32.7102 -7.31861 24.1761
rtibia 71.7963 0 0
rfoot -33.2185 -27.4726 0
rtoes -23.2062 0 0
lowerback 18.1852 0.947207 3.30612
upperback 0.575777 2.10249 2.55282
thorax -9.57668 0.878361 0.363591
lowerneck -2.01449 13.0242 4.27669
upperneck -1.90344 17.3356 -10.1669
head 1.10893 8.63601 -3.53014
lclavicle -2.87203e-14 2.26493e-15 0
lhumerus 105.126 -33.3355 19.6764
lradius 97.3258 0 0
lwrist 20.0922 0 0
lhand -9.28993 23.2878 0
lfingers 7.12502 0 0
lthumb 16.6677 52.5973 0
rclavicle -2.87203e-14 2.26493e-15 0
rhumerus 25.6537 35.2017 -57.5172
rradius 62.7998 0 0
rwrist -11.724 0 0
rhand -14.541 -42.2883 0
rfingers 7.12502 0 0
rthumb 11.6136 -72.0222 0
820
root -3.77527 14.776 -40.4307 386.453 -72.8675 342.986
lfemur -71.045 19.571 -24.7501
ltibia 86.4337 0 0
lfoot -8.40667 9.58613 0
ltoes -15.9996 0 0
rfemur -33.6815 -9.33276 23.9497
rtibia 71.8282 0 0
rfoot -33.3942 -27.4709 0
rtoes -21.8273 0 0
lowerback 18.2522 0.885413 3.26605
upperback 0.490623 2.02441 2.54879
thorax -9.71323 0.840823 0.394933
lowerneck -2.17725 12.9692 4.27036
upperneck -1.64931 17.2716 -10.2103
head 1.222 8.59733 -3.52939
lclavicle -2.64384e-14 1.59028e-15 0
lhumerus 105.599 -34.4529 17.9737
lradius 102.187 0 0
lwrist 18.6607 0 0
lhand -9.58125 23.1628 0
lfingers 7.12502 0 0
lthumb 16.3869 52.4906 0
rclavicle -2.64384e-14 1.59028e-15 0
rhumerus 29.247 39.0203 -54.6099
rradius 64.7872 0 0
rwrist -9.17263 0 0
rhand -13.6536 -40.8712 0
rfingers 7.12502 0 0
rthumb 12.4631 -70.4795 0
821
root -3.69539 14.7862 -40.4053 378.116 -71.7707 351.385
lfemur -70.2185 21.2515 -24.6617
ltibia 88.6729 0 0
lfoot -8.10961 10.7303 0
ltoes -15.6636 0 0
rfemur -34.6994 -11.2598 23.7648
rtibia 71.8794 0 0
rfoot -33.532 -27.4882 0
rtoes -20.5442 0 0
lowerback 18.3269 0.83845 3.23933
upperback 0.406855 1.96803 2.53857
thorax -9.85106 0.812795 0.406481
lowerneck -2.33421 12.9211 4.28586
upperneck -1.388 17.2176 -10.2657
head 1.33854 8.5631 -3.5355
lclavicle -2.38498e-14 8.25253e-16 0
lhumerus 106.054 -35.8046 16.1076
lradius 107.342 0 0
lwrist 17.5119 0 0
lhand -9.72864 23.0493 0
lfingers 7.12502 0 0
lthumb 16.2451 52.3942 0
rclavicle -2.38498e-14 8.25253e-16 0
rhumerus 33.3041 42.9662 -51.3841
rradius 66.674 0 0
rwrist -6.2943 0 0
rhand -12.6694 -39.4088 0
rfingers 7.12502 0 0
rthumb 13.4057 -68.8819 0
822
root -3.61552 14.7964 -40.3798 371.344 -70.9426 358.227
lfemur -69.3875 22.6241 -24.3648
ltibia 90.3932 0 0
lfoot -7.76636 11.7595 0
ltoes -15.216 0 0
rfemur -35.6515 -12.8914 23.6262
rtibia 71.954 0 0
rfoot -33.6253 -27.4952 0
rtoes -19.4888 0 0
lowerback 18.3973 0.811719 3.22882
upperback 0.332347 1.94021 2.53002
thorax -9.97488 0.797753 0.404188
lowerneck -2.46404 12.8792 4.32254
upperneck -1.15502 17.1714 -10.3233
head 1.44234 8.53313 -3.54748
lclavicle -2.10682e-14 -4.64541e-19 0
lhumerus 106.634 -37.1928 14.3925
lradius 112.184 0 0
lwrist 16.6034 0 0
lhand -9.69061 22.9392 0
lfingers 7.12502 0 0
lthumb 16.2822 52.2998 0
rclavicle -2.10682e-14 -4.64541e-19 0
rhumerus 37.4545 46.6627 -48.1225
rradius 68.2414 0 0
rwrist -3.32432 0 0
rhand -11.623 -38.077 0
rfingers 7.12502 0 0
rthumb 14.4081 -67.4103 0
823
root -3.53564 14.8066 -40.3544 366.011 -70.3485 363.635
lfemur -68.5461 23.7115 -23.87
ltibia 91.6228 0 0
lfoot -7.37728 12.6786 0
ltoes -14.6693 0 0
rfemur -36.5312 -14.2493 23.5253
rtibia 72.0462 0 0
rfoot -33.6739 -27.493 0
rtoes -18.6438 0 0
lowerback 18.4625 0.803776 3.23231
upperback 0.26612 1.93866 2.52268
thorax -10.0854 0.794717 0.389391
lowerneck -2.57 12.8416 4.37717
upperneck -0.946272 17.1304 -10.3798
head 1.53475 8.50611 -3.56359
lclavicle -1.81421e-14 -8.76571e-16 0
lhumerus 107.286 -38.5956 12.8374
lradius 116.697 0 0
lwrist 15.9028 0 0
lhand -9.49663 22.8379 0
lfingers 7.12502 0 0
lthumb 16.4697 52.2129 0
rclavicle -1.81421e-14 -8.76571e-16 0
rhumerus 41.6318 50.1075 -44.8584
rradius 69.53 0 0
rwrist -0.305256 0 0
rhand -10.5246 -36.8635 0
rfingers 7.12502 0 0
rthumb 15.4607 -66.0534 0
824
root -3.45577 14.8168 -40.329 361.991 -69.9538 367.73
lfemur -67.6886 24.5366 -23.1878
ltibia 92.3898 0 0
lfoot -6.94271 13.4924 0
ltoes -14.0358 0 0
rfemur -37.3322 -15.3553 23.4534
rtibia 72.1498 0 0
rfoot -33.6781 -27.4831 0
rtoes -17.992 0 0
lowerback 18.5215 0.813175 3.24755
upperback 0.207193 1.9611 2.51611
thorax -10.1831 0.802702 0.363431
lowerneck -2.65538 12.8064 4.44655
upperneck -0.75766 17.0921 -10.4318
head 1.6171 8.48076 -3.58211
lclavicle -1.512e-14 -1.79276e-15 0
lhumerus 107.956 -39.9916 11.4512
lradius 120.867 0 0
lwrist 15.3775 0 0
lhand -9.17618 22.7509 0
lfingers 7.12502 0 0
lthumb 16.7793 52.1393 0
rclavicle -1.512e-14 -1.79276e-15 0
rhumerus 45.7696 53.2981 -41.6252
rradius 70.5804 0 0
rwrist 2.7203 0 0
rhand -9.3843 -35.7564 0
rfingers 7.12502 0 0
rthumb 16.5538 -64.8003 0
825
root -3.37589 14.827 -40.3036 359.158 -69.7239 370.632
lfemur -66.8092 25.1224 -22.3285
ltibia 92.7223 0 0
lfoot -6.463 14.206 0
ltoes -13.3276 0 0
rfemur -38.048 -16.2308 23.4018
rtibia 72.2591 0 0
rfoot -33.6378 -27.4667 0
rtoes -17.5162 0 0
lowerback 18.5733 0.83847 3.27232
upperback 0.154585 2.00524 2.50988
thorax -10.2689 0.820727 0.327645
lowerneck -2.72347 12.7716 4.52743
upperneck -0.585081 17.0539 -10.4759
head 1.69073 8.45579 -3.60128
lclavicle -1.20503e-14 -2.73874e-15 0
lhumerus 108.591 -41.359 10.243
lradius 124.68 0 0
lwrist 14.9952 0 0
lhand -8.75873 22.6836 0
lfingers 7.12502 0 0
lthumb 17.1826 52.0844 0
rclavicle -1.20503e-14 -2.73874e-15 0
rhumerus 49.8013 56.232 -38.4561
rradius 71.4332 0 0
rwrist 5.70979 0 0
rhand -8.21207 -34.7433 0
rfingers 7.12502 0 0
rthumb 17.6776 -63.6397 0
826
root -3.29602 14.8372 -40.2781 357.387 -69.6241 372.464
lfemur -65.9021 25.4918 -21.3028
ltibia 92.6484 0 0
lfoot -5.93851 14.8239 0
ltoes -12.5572 0 0
rfemur -38.6722 -16.8978 23.3618
rtibia 72.3681 0 0
rfoot -33.5532 -27.445 0
rtoes -17.1991 0 0
lowerback 18.6169 0.878218 3.3044
upperback 0.107316 2.0688 2.50355
thorax -10.3433 0.847809 0.283374
lowerneck -2.77753 12.7352 4.61662
upperneck -0.424434 17.0133 -10.5087
head 1.75698 8.42991 -3.61936
lclavicle -8.98156e-15 -3.70419e-15 0
lhumerus 109.138 -42.6762 9.22167
lradius 128.12 0 0
lwrist 14.7233 0 0
lhand -8.27375 22.6416 0
lfingers 7.12502 0 0
lthumb 17.6509 52.0539 0
rclavicle -8.98156e-15 -3.70419e-15 0
rhumerus 53.6604 58.9066 -35.3844
rradius 72.1289 0 0
rwrist 8.62063 0 0
rhand -7.01804 -33.8121 0
rfingers 7.12502 0 0
rthumb 18.8225 -62.5607 0
